<svg xmlns="http://www.w3.org/2000/svg" viewBox="0 0 100 100">
  <defs>
    <radialGradient id="drop" cx="42%" cy="38%" r="60%">
      <stop offset="0%" stop-color="#FFD966"/>
      <stop offset="35%" stop-color="#E8A020"/>
      <stop offset="70%" stop-color="#C47A0A"/>
      <stop offset="100%" stop-color="#8B4A00"/>
    </radialGradient>
    <radialGradient id="shine" cx="35%" cy="28%" r="35%">
      <stop offset="0%" stop-color="#FFFFFF" stop-opacity="0.65"/>
      <stop offset="100%" stop-color="#FFFFFF" stop-opacity="0"/>
    </radialGradient>
  </defs>
  <!-- Amber drop shape -->
  <path d="M50 8 C50 8 18 45 18 62 C18 80 32 94 50 94 C68 94 82 80 82 62 C82 45 50 8 50 8Z" fill="url(#drop)"/>
  <!-- Shine highlight -->
  <path d="M50 8 C50 8 18 45 18 62 C18 80 32 94 50 94 C68 94 82 80 82 62 C82 45 50 8 50 8Z" fill="url(#shine)"/>
  <!-- Inner highlight streak -->
  <path d="M36 35 C33 42 30 52 31 62" stroke="#FFE680" stroke-width="4" stroke-linecap="round" fill="none" opacity="0.55"/>
</svg>
