<svg xmlns="http://www.w3.org/2000/svg" viewBox="0 0 400 300">
<defs>
  <radialGradient id="g" cx="47%" cy="50%" r="38%">
    <stop offset="0%" stop-color="#C9A832" stop-opacity=".2"/>
    <stop offset="100%" stop-color="#C9A832" stop-opacity="0"/>
  </radialGradient>
</defs>
<rect width="400" height="300" fill="#F5F0E8"/>
<ellipse cx="196" cy="152" rx="88" ry="65" fill="url(#g)"/>
<!-- Paper sheet -->
<rect x="138" y="96" width="132" height="114" rx="1" fill="none" stroke="#C9A832" stroke-width="1" opacity=".5"/>
<rect x="139" y="97" width="130" height="112" fill="#C9A832" opacity=".04"/>
<!-- Paper fold corner top-right -->
<path d="M 254 96 L 270 112 L 254 112 Z" fill="#C9A832" opacity=".12"/>
<path d="M 254 96 L 270 112" fill="none" stroke="#C9A832" stroke-width="0.8" opacity=".4"/>
<!-- Ring sketch — dashed circle -->
<circle cx="194" cy="155" r="30" fill="none" stroke="#C9A832" stroke-width="1.1" stroke-dasharray="4,3"/>
<!-- Inner void -->
<circle cx="194" cy="155" r="18" fill="none" stroke="#C9A832" stroke-width="0.7" stroke-dasharray="2,3" opacity=".5"/>
<!-- Amber stone top of ring -->
<ellipse cx="194" cy="125" rx="10" ry="6" fill="none" stroke="#C9A832" stroke-width="1.1"/>
<ellipse cx="194" cy="125" rx="5" ry="3" fill="#C9A832" opacity=".75"/>
<ellipse cx="194" cy="125" rx="2.5" ry="1.5" fill="#E8D080" opacity=".8"/>
<!-- Dimension line horizontal -->
<line x1="162" y1="142" x2="226" y2="142" stroke="#D4B84A" stroke-width="0.7" opacity=".5"/>
<line x1="162" y1="139" x2="162" y2="145" stroke="#D4B84A" stroke-width="0.7" opacity=".5"/>
<line x1="226" y1="139" x2="226" y2="145" stroke="#D4B84A" stroke-width="0.7" opacity=".5"/>
<text x="194" y="138" font-family="Montserrat,Arial,sans-serif" font-size="6.5" fill="#C9A832" text-anchor="middle" opacity=".65">17.3 mm</text>
<!-- Center cross -->
<line x1="191" y1="155" x2="197" y2="155" stroke="#D4B84A" stroke-width="0.8" opacity=".55"/>
<line x1="194" y1="152" x2="194" y2="158" stroke="#D4B84A" stroke-width="0.8" opacity=".55"/>
<!-- Pen / pencil -->
<line x1="252" y1="118" x2="278" y2="92" stroke="#C9A832" stroke-width="1.6" stroke-linecap="round" opacity=".85"/>
<polygon points="252,118 246,122 249,128 257,121" fill="#C9A832" opacity=".8"/>
<line x1="257" y1="121" x2="280" y2="96" stroke="#D4B84A" stroke-width="0.8" opacity=".4"/>
<!-- Small annotation dot -->
<circle cx="226" cy="155" r="2" fill="#C9A832" opacity=".5"/>
<line x1="228" y1="155" x2="240" y2="148" stroke="#D4B84A" stroke-width="0.7" opacity=".4"/>
<text x="243" y="146" font-family="Montserrat,Arial,sans-serif" font-size="6" fill="#C9A832" opacity=".5">R18k</text>
<text x="200" y="252" font-family="Montserrat,Arial,sans-serif" font-size="7.5" fill="#3C3830" text-anchor="middle" letter-spacing="3.5" opacity=".62">CUSTOM ORDERS</text>
<line x1="158" y1="258" x2="242" y2="258" stroke="#C9A832" stroke-width="0.5" opacity=".3"/>
</svg>
