<svg xmlns="http://www.w3.org/2000/svg" viewBox="0 0 400 300">
<defs>
  <radialGradient id="g" cx="50%" cy="48%" r="38%">
    <stop offset="0%" stop-color="#C9A832" stop-opacity=".22"/>
    <stop offset="100%" stop-color="#C9A832" stop-opacity="0"/>
  </radialGradient>
</defs>
<rect width="400" height="300" fill="#F5F0E8"/>
<ellipse cx="200" cy="142" rx="92" ry="70" fill="url(#g)"/>
<path d="M 112 82 A 38 44 0 0 1 150 126" fill="none" stroke="#C9A832" stroke-width="1.3" stroke-linecap="round"/>
<path d="M 150 126 Q 156 148 146 162" fill="none" stroke="#C9A832" stroke-width="1.3" stroke-linecap="round"/>
<line x1="146" y1="162" x2="138" y2="178" stroke="#C9A832" stroke-width="1.1" stroke-linecap="round"/>
<line x1="128" y1="162" x2="120" y2="178" stroke="#C9A832" stroke-width="1.1" stroke-linecap="round"/>
<path d="M 112 82 Q 90 98 88 122 Q 87 142 100 158 Q 108 166 118 167" fill="none" stroke="#C9A832" stroke-width="1" stroke-linecap="round" opacity=".55"/>
<path d="M 80 178 Q 102 168 124 178" fill="none" stroke="#C9A832" stroke-width="0.9" stroke-linecap="round" opacity=".4"/>
<path d="M 288 82 A 38 44 0 0 0 250 126" fill="none" stroke="#C9A832" stroke-width="1.3" stroke-linecap="round"/>
<path d="M 250 126 Q 244 148 254 162" fill="none" stroke="#C9A832" stroke-width="1.3" stroke-linecap="round"/>
<line x1="254" y1="162" x2="262" y2="178" stroke="#C9A832" stroke-width="1.1" stroke-linecap="round"/>
<line x1="272" y1="162" x2="280" y2="178" stroke="#C9A832" stroke-width="1.1" stroke-linecap="round"/>
<path d="M 288 82 Q 310 98 312 122 Q 313 142 300 158 Q 292 166 282 167" fill="none" stroke="#C9A832" stroke-width="1" stroke-linecap="round" opacity=".55"/>
<path d="M 320 178 Q 298 168 276 178" fill="none" stroke="#C9A832" stroke-width="0.9" stroke-linecap="round" opacity=".4"/>
<circle cx="200" cy="140" r="22" fill="none" stroke="#C9A832" stroke-width="1.5"/>
<circle cx="200" cy="140" r="9" fill="#C9A832" opacity=".9"/>
<circle cx="200" cy="140" r="4" fill="#E8D080"/>
<line x1="200" y1="112" x2="200" y2="107" stroke="#D4B84A" stroke-width="1.1" stroke-linecap="round"/>
<line x1="222" y1="120" x2="226" y2="116" stroke="#D4B84A" stroke-width="1.1" stroke-linecap="round"/>
<line x1="178" y1="120" x2="174" y2="116" stroke="#D4B84A" stroke-width="1.1" stroke-linecap="round"/>
<line x1="200" y1="168" x2="200" y2="173" stroke="#D4B84A" stroke-width="0.9" stroke-linecap="round" opacity=".6"/>
<line x1="158" y1="140" x2="177" y2="140" stroke="#C9A832" stroke-width="0.8" stroke-dasharray="2,4" opacity=".45"/>
<line x1="223" y1="140" x2="242" y2="140" stroke="#C9A832" stroke-width="0.8" stroke-dasharray="2,4" opacity=".45"/>
<text x="200" y="238" font-family="Montserrat,Arial,sans-serif" font-size="7.5" fill="#3C3830" text-anchor="middle" letter-spacing="3.5" opacity=".62">BOOK A CONSULTATION</text>
<line x1="145" y1="244" x2="255" y2="244" stroke="#C9A832" stroke-width="0.5" opacity=".3"/>
</svg>
